<?xml version="1.0" encoding="utf-8" ?><svg xmlns="http://www.w3.org/2000/svg" xmlns:xlink="http://www.w3.org/1999/xlink" width="352" height="352" viewBox="0 0 352 352"><path fill="white" transform="scale(0.343539 0.343539)" d="M659.175 228.277C662.029 227.925 664.211 227.718 666.578 225.906C689.647 208.249 708.675 185.514 729.887 165.775C734.025 161.926 742.11 163.115 747.094 163.725C749.226 168.133 757.439 175.177 761.195 178.896L786.279 203.946L825.591 242.948C831.595 248.875 837.404 256.307 844.121 260.548C844.333 262.535 844.46 264.662 844.617 266.666L845.682 267.394L845.067 268.322C846.594 266.406 846.016 265.749 847.679 265.273C852.033 272.199 834.616 287.289 830.239 291.621L806.961 314.715C800.084 321.534 793.11 328.073 787.303 335.874C782.607 342.376 776.159 352.9 775.135 361.108C774.002 370.189 769.542 381.22 771.048 389.935C774.032 407.203 778.853 423.889 790.441 437.484C793.621 441.214 798.096 444.918 801.612 448.482L830.218 476.971C832.867 479.619 835.411 482.539 838.055 485.201C838.573 485.723 842.854 489.678 842.955 489.858C846.178 495.568 842.658 493.421 848.16 497.352C849.154 499.174 849.128 500.8 847.541 502.731C828.496 525.785 803.641 544.432 785.393 568.135C770.756 587.148 770.318 615.811 774.838 638.359C775.915 643.731 783.142 656.842 786.509 661.473C791.717 668.637 799.682 676.045 806.041 682.367L827.879 704.013C837.669 713.716 842.928 717.603 848.493 730.24C833.861 748.056 816.237 764.066 800.039 780.611C783.35 797.267 766.819 814.112 749.999 830.635C747.08 833.501 743.224 835.248 740.002 838.29C736.615 836.047 732.379 834.06 728.605 832.562C720.87 822.745 711.441 814.686 702.611 805.925C687.741 791.176 673.182 773.256 652.779 766.139C650.055 765.189 631.082 760.704 628.322 760.608C614.008 760.113 595.195 765.177 582.695 772.268C573.419 777.53 564.669 786.404 557.091 794.008L533.228 818.001C528.889 822.367 523.256 828.35 518.726 832.196L518.231 832.609C516.428 834.59 510.856 835.045 508.314 835.177L507.709 835.205C508.969 835.773 510.188 836.291 511.461 836.821C504.998 840.102 498.021 829.378 493.886 827.676C492.274 824.475 486.489 818.322 482.972 817.08C479.22 810.863 477.956 811.68 474.034 807.262C467.724 800.154 461.035 794.292 454.605 787.368C451.41 783.927 451.463 786.382 449.033 781.476C444.682 779.765 443.583 776.091 437.724 773.552C431.357 770.793 426.297 766.401 418.872 765.151C410.126 763.678 401.399 760.341 392.469 760.575C388.316 760.635 383.658 762.619 379.668 763.035C367.531 764.302 356.846 769.739 346.687 776.271C342.307 779.088 335.031 786.126 331.288 790.119C317.498 804.832 301.447 818.589 288.113 833.605C283.82 834.578 272.432 835.906 269.179 832.655C267.865 827.047 267.722 830.202 264.241 827.404C261.951 825.565 258.544 819.092 255.477 818.225C252.443 817.367 253.499 816.052 252.097 813.471L251.277 813.088C245.522 810.398 246.063 807.691 241.595 803.427C238.592 800.562 235.03 798.18 232.027 795.239C231.603 793.625 231.542 792.846 230.463 791.558C224.791 789.788 224.183 785.943 220.228 782.133C217.213 779.229 213.635 777.004 210.701 773.912C210.34 772.404 210.279 771.248 209.163 770.242C201.376 768.287 202.626 761.759 195.874 759.21C194.653 758.749 189.973 751.721 188.369 750.058C185.91 747.299 179.363 744.293 178.178 740.893C177.081 737.746 176.278 738.402 173.074 737.521C172.974 732.584 172.906 727.93 173.005 722.979C176.694 717.005 183.019 711.771 187.925 706.706C202.149 692.04 217.819 678.417 230.748 662.587C235.157 657.19 236.831 656.786 237.822 649.687C237.988 648.499 240.433 647.403 241.666 646.831C242.569 637.227 246.151 631.668 247.247 623.301C249.944 602.717 241.579 578.379 228.826 562.34C223.111 555.152 215.008 549.044 209.072 541.552C203.005 539.771 205.833 538.31 204.653 537.259C200.215 533.308 196.889 530.224 193.086 525.547C191.541 525.079 191.157 525.071 189.827 524.132C188.059 519.203 177.815 511.8 173.881 507.576C172.697 506.43 172.534 494.208 173.168 493.398C187.601 474.973 207.014 458.909 223.128 441.656C224.78 439.695 227.24 437.924 228.656 435.791C234.555 426.907 236.266 430.665 237.336 419.658L241.497 417.553C241.682 415.587 242.023 411.186 242.512 409.493C243.805 405.014 246.518 400.438 247.057 395.751C248.079 386.858 247.909 377.232 245.521 368.564C244.105 363.419 242.504 358.374 241.768 353.165L241.643 352.256C241.522 352.138 241.401 352.021 241.28 351.903L240.687 351.305C237.124 347.769 237.187 346.635 236.091 341.736C231.983 338.114 229.682 333.024 226.219 329.488C222.248 325.434 217.535 322.011 213.453 317.787C200.643 304.528 188.412 288.978 173.537 278.007C172.302 270.956 172.652 268.391 173.251 261.189C178.765 257.958 188.676 247.158 193.587 242.19L216.297 219.455L248.534 187.264C257.007 178.839 263.591 173.013 271.304 163.766C274.473 163.464 286.865 162.394 289.15 164.504C289.729 168.691 293.64 170.448 296.61 173.379C300.311 177.032 303.986 180.718 307.705 184.346C320.08 196.416 331.769 209.352 344.834 220.668C358.011 231.779 387.427 240.851 404.735 237.399C408.733 236.601 413.87 234.333 417.926 233.151C420.56 232.383 423.872 232.073 426.657 231.744L429.554 227.873C433.48 227.347 437.399 227.838 439.069 224.132L439.447 223.285C458.227 210.966 473.613 189.914 490.123 174.607C494.735 170.331 499.437 164.499 505.765 163.129C509.424 162.872 514.119 163.275 517.762 163.785C521.296 170.512 535.561 182.592 541.666 188.91C551.837 199.436 562.53 211.033 574.001 220.115C589.969 232.757 614.187 240.285 634.561 237.487C641.219 236.427 647.236 233.259 655.633 232.19L659.175 228.277ZM504.714 375.958C489.876 367.538 464.779 336.271 450.962 324.146C446.522 320.25 444.676 319.465 439.607 316.205C439.373 316.054 438.549 313.786 438.361 313.252C435.483 311.735 432.724 312.232 429.718 311.544C427.637 311.068 429.605 308.573 426.659 307.881C413.321 304.748 403.715 300.891 389.637 301.702C338.172 305.494 299.682 356.695 314.87 407.052C326.605 445.96 364.375 462.402 385.494 494.094C385.614 501.653 386.632 506.121 380.437 511.61C369.707 521.115 359.715 533.139 349.235 542.667C327.291 562.621 311.39 583.925 311.306 615.069C311.272 627.844 316.894 643.15 322.4 654.701C324.434 658.655 334.479 670.6 337.844 673.602C344.152 679.229 347.998 684.531 356.47 685.96L359.893 690.012L360.761 690.153C367.2 691.228 370.773 693.75 376.782 694.966C381.553 695.851 386.584 695.675 391.367 695.932C410.025 696.934 425.503 692.367 440.885 681.575C463.636 665.614 479.892 642.535 501.174 624.893C503.315 623.118 506.936 621.186 509.831 621.643C515.608 622.595 521.383 627.844 525.525 631.676C538.118 643.326 549.495 656.218 561.97 667.994C567.049 672.789 572.723 678.29 578.176 682.66C580.634 684.63 585.833 686.884 588.808 688.321C602.825 695.092 610.86 696.311 626.125 695.75C630.948 695.7 637.409 695.759 641.968 694.739C656.062 691.585 673.089 682.213 683.006 671.749C695.477 658.019 707.506 637.645 705.879 618.456C705.407 612.885 706.362 602.386 705.691 597.76C705.03 593.209 697.4 574.628 695.023 571.365C681.675 553.044 664.069 538.004 648.369 521.75C645.134 518.408 636.74 510.691 635.518 506.658C634.923 504.696 636.409 497.063 635.579 491.658C639.249 484.921 646.735 478.985 651.726 473.515C668.843 454.751 693.031 438.363 701.017 413.322C701.92 410.49 702.81 408.962 704.863 406.758C705.776 396.936 706.691 377.137 705.033 367.287C702.613 352.917 690.006 332.003 678.898 322.757C675.47 319.903 670.423 318.186 668.219 314.358C665.259 309.218 659.794 314.73 657.532 308.305C655.595 306.569 650.762 307.07 647.979 306.38C645.996 306.015 642.433 303.6 640.654 303.321C634.346 302.332 625.654 301.206 619.279 301.713C612.073 302.287 598.513 305.203 592.081 308.106C572.093 317.276 558.975 333.685 543.576 348.621C537.313 354.695 531.367 360.863 525.29 367.102C521.869 370.614 519.139 371.645 516.09 375.856C512.186 375.972 508.617 376.019 504.714 375.958Z"/></svg>