<?xml version="1.0" encoding="utf-8" ?><svg xmlns="http://www.w3.org/2000/svg" xmlns:xlink="http://www.w3.org/1999/xlink" width="364" height="352" viewBox="0 0 364 352"><path fill="white" transform="scale(1.57047 1.57047)" d="M127.128 49.5795C135.666 49.2423 144.805 49.7197 153.467 49.4406C153.125 55.0321 153.562 61.0431 153.399 66.676C153.317 69.5117 153.346 72.783 153.495 75.6117C160.506 76.1074 171.808 75.6491 179.249 75.7349C179.326 79.1517 179.968 100.559 178.915 102.1C178.711 102.397 178.397 102.369 178.062 102.436C169.849 102.434 160.575 102.202 152.456 102.511C152.62 101.665 152.655 100.785 152.657 99.9247C152.67 92.0598 152.553 84.1972 152.726 76.3328C144.117 76.4778 135.445 76.3805 126.819 76.4835C126.805 72.6613 126.317 51.8178 127.128 49.5795Z"/><path fill="white" transform="scale(1.57047 1.57047)" d="M127.51 50.4945L153.017 50.4761C153.047 58.4934 153.319 68.1529 152.99 76.026C144.604 76.0507 135.832 76.2044 127.476 76.0136L127.51 50.4945Z"/><path fill="white" transform="scale(1.57047 1.57047)" d="M152.99 76.026L178.505 75.9442C178.5 84.3789 178.391 93.0293 178.499 101.445C170.086 101.451 161.388 101.575 152.999 101.451C152.799 93.351 152.849 84.1497 152.99 76.026Z"/><path fill="white" transform="scale(1.57047 1.57047)" d="M88.7109 49.6477C97.0217 49.2228 107.587 50.1717 115.482 49.5756L115.409 76.1227C114.659 76.7041 108.318 76.4093 106.958 76.4122C101.299 76.4243 95.6521 76.3929 89.9924 76.5241C90.2083 79.5191 90.6802 100.768 89.7393 102.136C88.2194 102.732 65.2114 102.723 63.8929 102.286C63.4837 101.532 63.5747 78.2936 63.8339 75.8593C64.6658 75.5167 86.2089 75.7487 88.7678 75.6271C89.0315 67.7261 88.7174 57.7418 88.7109 49.6477Z"/><path fill="white" transform="scale(1.57047 1.57047)" d="M88.7109 49.6477C97.0217 49.2228 107.587 50.1717 115.482 49.5756L115.409 76.1227C114.659 76.7041 108.318 76.4093 106.958 76.4122C101.299 76.4243 95.6521 76.3929 89.9924 76.5241C90.2083 79.5191 90.6802 100.768 89.7393 102.136C88.2194 102.732 65.2114 102.723 63.8929 102.286C63.4837 101.532 63.5747 78.2936 63.8339 75.8593C64.0883 77.142 64.0016 82.7784 63.9998 84.2709L63.9888 101.404C72.1618 101.642 81.2251 101.426 89.4887 101.476C89.3241 93.1442 89.5107 84.4275 89.4468 76.0325C97.5386 76.266 106.844 76.08 114.976 76.0789L114.976 50.4893L89.2753 50.4972L89.3326 76.0114C81.8546 75.8103 70.831 76.3815 63.8339 75.8593C64.6658 75.5167 86.2089 75.7487 88.7678 75.6271C89.0315 67.7261 88.7174 57.7418 88.7109 49.6477Z"/><path fill="white" transform="scale(1.57047 1.57047)" d="M64.0057 115.037C65.0291 114.378 86.6075 114.696 89.564 114.694L89.5431 140.094C98.0324 139.897 106.578 139.943 115.074 139.938L115.071 165.883C106.671 166.015 97.4287 165.703 89.1952 165.998L89.1839 140.317L72.1136 140.372C70.7582 140.375 65.0623 140.445 63.9857 140.238C63.6381 137.055 63.8492 130.702 63.8298 127.232C63.8126 124.17 63.6848 117.776 64.0057 115.037Z"/><path fill="white" transform="scale(1.57047 1.57047)" d="M152.912 114.683L178.576 114.687L178.58 140.401C171.204 140.049 160.689 140.358 153.125 140.321C153.154 143.219 153.551 164.983 152.74 165.856C144.384 165.977 135.792 165.874 127.417 165.874L127.396 140.019C135.739 139.89 144.57 139.907 152.909 140.014C152.568 132.343 152.877 122.517 152.912 114.683Z"/><path fill="white" transform="scale(1.57047 1.57047)" d="M108.397 95.2089L134.202 95.1933C134.02 97.0262 134.202 100.368 134.168 102.314C134.064 108.277 134.425 114.639 134.112 120.572L133.86 121.005C132.403 121.188 127.444 121.071 125.795 121.072L108.407 121.069L108.397 95.2089Z"/></svg>